<svg width="1024" height="1024" viewBox="0 0 1024 1024" fill="none" xmlns="http://www.w3.org/2000/svg">
<path d="M728.771 325.157L747.413 312.402L725.577 318.183C694.423 326.433 662.264 344.468 635.338 368.449C608.418 392.426 586.504 422.553 576.131 455.154L569.117 477.196L582.952 458.663C611.145 420.915 676.566 360.874 728.771 325.157Z" fill="url(#paint0_linear_1_15)"/>
<mask id="path-2-outside-1_1_15" maskUnits="userSpaceOnUse" x="44" y="263" width="936" height="499" fill="black">
<rect fill="white" x="44" y="263" width="936" height="499"/>
<path d="M907.415 349.265C848.732 294.775 779.158 276.725 700.696 296.802C657.451 307.866 618.856 328.478 582.93 354.389C546.126 380.936 513.998 412.295 492.454 452.577C471.166 492.385 452.584 533.635 431.666 573.655C411.085 613.028 386.774 649.963 353.273 679.958C315.313 713.948 270.972 731.173 220.224 724.01C147.814 713.789 98.0557 671.914 69.2836 605.671C44.1165 547.731 46.66 488.799 68.5364 430.342C105.583 331.33 209.648 278.322 311.469 306.524C366.911 321.878 409.927 355.572 446.105 399.039C455.015 409.745 454.374 414.135 442.746 425.439C440.336 423.322 437.774 421.248 435.414 418.973C408.121 392.71 380.071 367.393 346.305 349.471C313.894 332.264 279.795 322.018 242.626 326.701C174.575 335.274 125.007 370.422 94.2327 431.634C58.9571 501.809 68.7855 585.628 123.926 644.013C170.752 693.597 239.849 710.029 300.258 685.008C309.277 681.275 317.53 675.687 326.138 670.955C325.705 670.17 325.276 669.392 324.846 668.608C322.477 669.722 320.052 670.718 317.757 671.96C299.968 681.608 281.003 686.801 260.879 689.413C167.004 701.617 85.3881 624.229 80.0303 530.945C77.244 482.513 91.0355 438.57 121.542 401.33C162.343 351.528 215.019 327.451 279.87 340.925C341.128 353.655 390.98 387.414 433.867 432.048C435.477 433.726 435.909 436.534 437.291 439.744C434.714 439.43 433.976 439.563 433.596 439.258C431.202 437.331 428.836 435.367 426.56 433.303C395.849 405.412 362.369 381.764 323.766 365.88C295.579 354.284 266.536 345.738 235.849 350.112C167.113 359.912 118.702 411.579 101.505 475.256C86.3096 531.518 96.3933 583.402 135.601 627.803C170.008 666.774 214.016 682.819 264.96 674.635C327.638 664.57 372.708 626.259 409.453 577.067C434.67 543.32 449.181 503.652 468.196 466.493C503.54 397.429 556.194 346.625 627.256 315.188C641.436 308.918 655.819 303.115 670.109 297.097C671.56 296.444 678.925 292.172 678.925 292.172L669.331 294.775C669.331 294.775 657.089 298.028 651.118 300.092C613.903 312.947 580.81 333.456 547.798 354.486C516.211 374.61 490.073 399.484 473.311 433.026C458.626 462.414 445.134 492.419 431.744 522.434C407.884 575.931 372.101 618.379 321.182 648.428C242.626 694.796 143.169 660.905 111.47 575.94C110.194 572.512 109.746 568.774 108.644 564.007C117.572 570.968 124.708 577.232 132.547 582.44C140.457 587.696 148.835 592.39 157.406 596.503C238.29 635.346 311.21 627.081 378.564 564.904C408.174 537.573 426.352 502.771 442.248 466.598C468.087 407.79 506.703 359.355 562.227 326.838C642.629 279.751 728.939 271.068 818.761 293.997C830.697 297.044 842.43 300.88 854.254 304.348C807.46 275.043 756.326 261.159 701.674 264.483C601.323 270.588 522.079 316.539 461.31 397.538C456.316 391.981 452.12 387.511 448.141 382.85C428.659 360.031 406.542 340.175 381.481 323.665C343.762 298.819 302.552 284.234 257.103 286.749C174.307 291.332 112.498 330.374 73.4739 403.861C16.9974 510.211 46.6039 636.619 143.938 704.752C171.35 723.938 201.716 736.488 235.74 736.902C256.293 737.157 276.974 736.796 297.409 734.785C365.834 728.054 422.333 697.949 466.051 644.869C507.161 594.965 535.905 538.221 557.838 477.566C566.576 453.395 578.248 430.23 589.437 407.018C610.083 364.212 645.427 338.213 688.635 320.975C764.429 290.743 847.536 307.078 901.457 366.3C956.149 426.37 973.621 496.631 949.223 575.093C918.558 673.713 819.091 727.245 719.671 699.858C665.567 684.955 624.893 650.554 588.534 609.874C586.965 608.121 586.747 605.167 585.897 602.773C586.75 602.237 587.606 601.696 588.462 601.157C593.898 606.281 599.43 611.315 604.757 616.558C638.55 649.879 676.734 677.001 722.884 689.198C780.683 704.478 834.535 694.544 881.504 655.632C934.127 612.038 956.999 530.584 935.612 466.047C923.747 430.255 903.524 400.35 874.493 376.727C843.392 351.423 808.111 337.32 767.119 340.853C731.893 343.892 701.449 358.844 673.842 379.653C633.311 410.206 604.791 451.235 579.714 494.374C552.215 541.679 527.039 590.342 490.655 631.816C468.579 656.983 447.459 683.215 418.727 701.442C408.697 707.803 398.019 713.142 387.639 718.948C388.15 719.954 388.666 720.962 389.18 721.971C427.083 703.164 464.987 684.357 503.811 665.093C503.313 667.344 503.388 668.39 502.899 668.959C501.321 670.827 499.655 672.658 497.812 674.258C456.97 709.745 409.254 731.186 356.096 738.268C323.654 742.59 290.526 741.849 257.697 743.047C244.373 743.533 231.017 743.128 217.671 743.128C217.876 744.33 218.091 745.535 218.297 746.733C361.672 784.506 479.31 746.039 568.603 625.543C570.312 626.772 571.175 627.196 571.782 627.853C575.748 632.143 579.698 636.451 583.584 640.813C623.887 686.048 672.403 717.108 733.039 727.011C792.184 736.671 846.615 724.166 894.371 688.339C941.113 653.272 967.615 604.641 976.08 547.454C987.549 470.063 964.782 402.532 907.415 349.265ZM107.43 509.19C102.716 501.142 104.871 491.218 114.73 482.13C111.931 492.494 109.652 500.934 107.43 509.19ZM419.185 476.081C404.08 509.573 386.733 541.888 360.025 567.765C328.457 598.343 291.055 616.324 246.222 613.13C202.164 609.992 167.586 588.717 142.098 552.915C128.833 534.279 120.1 514.034 121.573 490.246C122.806 470.266 133.895 457.595 150.003 447.891C182.679 428.2 218.484 417.777 255.917 412.472C268.071 410.751 280.405 410.296 292.655 409.263C329.628 406.174 359.231 423.988 388.24 443.01C397.975 449.395 407.159 456.773 415.801 464.581C418.413 466.944 420.477 473.223 419.185 476.081ZM428.758 453.539C425.71 451.599 422.429 449.946 419.646 447.676C386.973 421.009 350.611 400.611 311.649 384.852C283.129 373.318 248.38 370.718 226.612 378.405C260.979 375.892 292.929 384.65 326.129 399.671C246.094 399.817 171.291 409.132 111.965 467.563C117.806 445.37 128.73 426.497 144.293 410.499C184.254 369.42 232.863 357.45 288.007 369.162C340.985 380.416 385.186 407.905 424.465 444.19C426.738 446.291 428.568 448.872 430.611 451.229C429.991 451.998 429.375 452.77 428.758 453.539ZM595.878 383.084C589.938 391.897 582.893 400.172 578.26 409.627C563.426 439.897 548.744 470.288 535.391 501.23C518.222 541.029 501.794 581.177 477.937 617.564C444.962 667.86 400.497 702.563 340.686 715.489C339.546 715.732 338.342 715.682 334.637 715.956C346.343 708.587 356.295 702.915 365.619 696.343C405.005 668.598 435.701 632.731 458.801 590.89C479.114 554.095 496.744 515.818 516.034 478.441C534.542 442.571 559.173 411.389 589.947 385.157C591.311 383.993 592.79 382.959 594.215 381.863L598.272 379.009L595.878 383.084ZM557.383 591.537C529.106 631.891 491.567 663.384 446.363 685.618C447.69 683.984 448.904 682.25 450.345 680.73C480.612 648.91 512.186 618.205 540.675 584.859C556.231 566.65 568.843 545.014 578.78 523.112C600.09 476.156 628.772 435.41 667.089 400.823C687.284 382.592 706.67 364.071 732.921 354.592C782.66 336.635 828.016 345.987 867.844 378.763C923.153 424.271 942.719 484.172 929.292 553.743C914.928 628.18 842.96 681.608 766.954 678.508C704.357 675.955 654.004 648.166 609.591 606.63C605.323 602.648 601.021 598.651 597.182 594.268C595.495 592.34 594.931 589.426 593.857 586.964C594.934 586.223 596.005 585.479 597.079 584.732C602.845 590.015 608.536 595.385 614.386 600.572C646.287 628.874 681.179 652.011 723.497 661.472C773.171 672.571 821.124 668.567 861.854 635.816C909.464 597.527 927.057 546.24 913.545 486.66C901.317 432.745 867.529 394.799 816.762 373.383C781.318 358.43 745.962 362.885 712.922 381.695C665.062 408.942 632.299 449.597 608.623 498.973C593.387 530.755 577.522 562.802 557.383 591.537ZM743.378 414.502C793.089 417.117 835.002 437.064 867.763 474.154C886.015 494.82 887.435 520.223 877.407 545.334C860.344 588.063 814.863 615.095 766.624 612.816C729.092 611.041 696.088 597.378 666.535 574.95C652.118 564.01 638.569 551.937 624.485 540.546C620.565 537.38 619.448 534.354 621.668 529.482C633.635 503.231 645.35 476.863 657.111 450.516C661.616 440.42 669.275 434.081 679.368 429.695C699.84 420.797 720.611 413.655 743.378 414.502ZM682.067 412.423C690.298 405.972 698.047 398.771 706.832 393.202C740.554 371.826 776.188 371.92 811.968 386.742C851.618 403.167 881.728 430.532 897.789 470.839C903.437 485.016 904.648 500.959 906.715 516.139C856.957 426.911 783.414 391.832 682.067 412.423ZM650.181 572.039C672.634 589.897 696.026 606.2 723.665 615.247C763.259 628.211 801.564 623.818 837.923 604.768C855.509 595.553 871.673 583.614 888.453 572.871C890.701 571.432 892.796 569.757 894.959 568.198C895.732 568.637 896.507 569.079 897.279 569.518C893.957 576.616 891.463 584.259 887.186 590.728C859.03 633.291 818.116 652.341 768.171 652.129C703.037 651.846 651.374 620.895 605.694 577.64C603.95 575.987 602.674 571.856 603.505 569.823C606.839 561.663 611.089 553.88 615.855 544.229C628.342 554.353 639.186 563.291 650.181 572.039Z"/>
</mask>
<path d="M907.415 349.265C848.732 294.775 779.158 276.725 700.696 296.802C657.451 307.866 618.856 328.478 582.93 354.389C546.126 380.936 513.998 412.295 492.454 452.577C471.166 492.385 452.584 533.635 431.666 573.655C411.085 613.028 386.774 649.963 353.273 679.958C315.313 713.948 270.972 731.173 220.224 724.01C147.814 713.789 98.0557 671.914 69.2836 605.671C44.1165 547.731 46.66 488.799 68.5364 430.342C105.583 331.33 209.648 278.322 311.469 306.524C366.911 321.878 409.927 355.572 446.105 399.039C455.015 409.745 454.374 414.135 442.746 425.439C440.336 423.322 437.774 421.248 435.414 418.973C408.121 392.71 380.071 367.393 346.305 349.471C313.894 332.264 279.795 322.018 242.626 326.701C174.575 335.274 125.007 370.422 94.2327 431.634C58.9571 501.809 68.7855 585.628 123.926 644.013C170.752 693.597 239.849 710.029 300.258 685.008C309.277 681.275 317.53 675.687 326.138 670.955C325.705 670.17 325.276 669.392 324.846 668.608C322.477 669.722 320.052 670.718 317.757 671.96C299.968 681.608 281.003 686.801 260.879 689.413C167.004 701.617 85.3881 624.229 80.0303 530.945C77.244 482.513 91.0355 438.57 121.542 401.33C162.343 351.528 215.019 327.451 279.87 340.925C341.128 353.655 390.98 387.414 433.867 432.048C435.477 433.726 435.909 436.534 437.291 439.744C434.714 439.43 433.976 439.563 433.596 439.258C431.202 437.331 428.836 435.367 426.56 433.303C395.849 405.412 362.369 381.764 323.766 365.88C295.579 354.284 266.536 345.738 235.849 350.112C167.113 359.912 118.702 411.579 101.505 475.256C86.3096 531.518 96.3933 583.402 135.601 627.803C170.008 666.774 214.016 682.819 264.96 674.635C327.638 664.57 372.708 626.259 409.453 577.067C434.67 543.32 449.181 503.652 468.196 466.493C503.54 397.429 556.194 346.625 627.256 315.188C641.436 308.918 655.819 303.115 670.109 297.097C671.56 296.444 678.925 292.172 678.925 292.172L669.331 294.775C669.331 294.775 657.089 298.028 651.118 300.092C613.903 312.947 580.81 333.456 547.798 354.486C516.211 374.61 490.073 399.484 473.311 433.026C458.626 462.414 445.134 492.419 431.744 522.434C407.884 575.931 372.101 618.379 321.182 648.428C242.626 694.796 143.169 660.905 111.47 575.94C110.194 572.512 109.746 568.774 108.644 564.007C117.572 570.968 124.708 577.232 132.547 582.44C140.457 587.696 148.835 592.39 157.406 596.503C238.29 635.346 311.21 627.081 378.564 564.904C408.174 537.573 426.352 502.771 442.248 466.598C468.087 407.79 506.703 359.355 562.227 326.838C642.629 279.751 728.939 271.068 818.761 293.997C830.697 297.044 842.43 300.88 854.254 304.348C807.46 275.043 756.326 261.159 701.674 264.483C601.323 270.588 522.079 316.539 461.31 397.538C456.316 391.981 452.12 387.511 448.141 382.85C428.659 360.031 406.542 340.175 381.481 323.665C343.762 298.819 302.552 284.234 257.103 286.749C174.307 291.332 112.498 330.374 73.4739 403.861C16.9974 510.211 46.6039 636.619 143.938 704.752C171.35 723.938 201.716 736.488 235.74 736.902C256.293 737.157 276.974 736.796 297.409 734.785C365.834 728.054 422.333 697.949 466.051 644.869C507.161 594.965 535.905 538.221 557.838 477.566C566.576 453.395 578.248 430.23 589.437 407.018C610.083 364.212 645.427 338.213 688.635 320.975C764.429 290.743 847.536 307.078 901.457 366.3C956.149 426.37 973.621 496.631 949.223 575.093C918.558 673.713 819.091 727.245 719.671 699.858C665.567 684.955 624.893 650.554 588.534 609.874C586.965 608.121 586.747 605.167 585.897 602.773C586.75 602.237 587.606 601.696 588.462 601.157C593.898 606.281 599.43 611.315 604.757 616.558C638.55 649.879 676.734 677.001 722.884 689.198C780.683 704.478 834.535 694.544 881.504 655.632C934.127 612.038 956.999 530.584 935.612 466.047C923.747 430.255 903.524 400.35 874.493 376.727C843.392 351.423 808.111 337.32 767.119 340.853C731.893 343.892 701.449 358.844 673.842 379.653C633.311 410.206 604.791 451.235 579.714 494.374C552.215 541.679 527.039 590.342 490.655 631.816C468.579 656.983 447.459 683.215 418.727 701.442C408.697 707.803 398.019 713.142 387.639 718.948C388.15 719.954 388.666 720.962 389.18 721.971C427.083 703.164 464.987 684.357 503.811 665.093C503.313 667.344 503.388 668.39 502.899 668.959C501.321 670.827 499.655 672.658 497.812 674.258C456.97 709.745 409.254 731.186 356.096 738.268C323.654 742.59 290.526 741.849 257.697 743.047C244.373 743.533 231.017 743.128 217.671 743.128C217.876 744.33 218.091 745.535 218.297 746.733C361.672 784.506 479.31 746.039 568.603 625.543C570.312 626.772 571.175 627.196 571.782 627.853C575.748 632.143 579.698 636.451 583.584 640.813C623.887 686.048 672.403 717.108 733.039 727.011C792.184 736.671 846.615 724.166 894.371 688.339C941.113 653.272 967.615 604.641 976.08 547.454C987.549 470.063 964.782 402.532 907.415 349.265ZM107.43 509.19C102.716 501.142 104.871 491.218 114.73 482.13C111.931 492.494 109.652 500.934 107.43 509.19ZM419.185 476.081C404.08 509.573 386.733 541.888 360.025 567.765C328.457 598.343 291.055 616.324 246.222 613.13C202.164 609.992 167.586 588.717 142.098 552.915C128.833 534.279 120.1 514.034 121.573 490.246C122.806 470.266 133.895 457.595 150.003 447.891C182.679 428.2 218.484 417.777 255.917 412.472C268.071 410.751 280.405 410.296 292.655 409.263C329.628 406.174 359.231 423.988 388.24 443.01C397.975 449.395 407.159 456.773 415.801 464.581C418.413 466.944 420.477 473.223 419.185 476.081ZM428.758 453.539C425.71 451.599 422.429 449.946 419.646 447.676C386.973 421.009 350.611 400.611 311.649 384.852C283.129 373.318 248.38 370.718 226.612 378.405C260.979 375.892 292.929 384.65 326.129 399.671C246.094 399.817 171.291 409.132 111.965 467.563C117.806 445.37 128.73 426.497 144.293 410.499C184.254 369.42 232.863 357.45 288.007 369.162C340.985 380.416 385.186 407.905 424.465 444.19C426.738 446.291 428.568 448.872 430.611 451.229C429.991 451.998 429.375 452.77 428.758 453.539ZM595.878 383.084C589.938 391.897 582.893 400.172 578.26 409.627C563.426 439.897 548.744 470.288 535.391 501.23C518.222 541.029 501.794 581.177 477.937 617.564C444.962 667.86 400.497 702.563 340.686 715.489C339.546 715.732 338.342 715.682 334.637 715.956C346.343 708.587 356.295 702.915 365.619 696.343C405.005 668.598 435.701 632.731 458.801 590.89C479.114 554.095 496.744 515.818 516.034 478.441C534.542 442.571 559.173 411.389 589.947 385.157C591.311 383.993 592.79 382.959 594.215 381.863L598.272 379.009L595.878 383.084ZM557.383 591.537C529.106 631.891 491.567 663.384 446.363 685.618C447.69 683.984 448.904 682.25 450.345 680.73C480.612 648.91 512.186 618.205 540.675 584.859C556.231 566.65 568.843 545.014 578.78 523.112C600.09 476.156 628.772 435.41 667.089 400.823C687.284 382.592 706.67 364.071 732.921 354.592C782.66 336.635 828.016 345.987 867.844 378.763C923.153 424.271 942.719 484.172 929.292 553.743C914.928 628.18 842.96 681.608 766.954 678.508C704.357 675.955 654.004 648.166 609.591 606.63C605.323 602.648 601.021 598.651 597.182 594.268C595.495 592.34 594.931 589.426 593.857 586.964C594.934 586.223 596.005 585.479 597.079 584.732C602.845 590.015 608.536 595.385 614.386 600.572C646.287 628.874 681.179 652.011 723.497 661.472C773.171 672.571 821.124 668.567 861.854 635.816C909.464 597.527 927.057 546.24 913.545 486.66C901.317 432.745 867.529 394.799 816.762 373.383C781.318 358.43 745.962 362.885 712.922 381.695C665.062 408.942 632.299 449.597 608.623 498.973C593.387 530.755 577.522 562.802 557.383 591.537ZM743.378 414.502C793.089 417.117 835.002 437.064 867.763 474.154C886.015 494.82 887.435 520.223 877.407 545.334C860.344 588.063 814.863 615.095 766.624 612.816C729.092 611.041 696.088 597.378 666.535 574.95C652.118 564.01 638.569 551.937 624.485 540.546C620.565 537.38 619.448 534.354 621.668 529.482C633.635 503.231 645.35 476.863 657.111 450.516C661.616 440.42 669.275 434.081 679.368 429.695C699.84 420.797 720.611 413.655 743.378 414.502ZM682.067 412.423C690.298 405.972 698.047 398.771 706.832 393.202C740.554 371.826 776.188 371.92 811.968 386.742C851.618 403.167 881.728 430.532 897.789 470.839C903.437 485.016 904.648 500.959 906.715 516.139C856.957 426.911 783.414 391.832 682.067 412.423ZM650.181 572.039C672.634 589.897 696.026 606.2 723.665 615.247C763.259 628.211 801.564 623.818 837.923 604.768C855.509 595.553 871.673 583.614 888.453 572.871C890.701 571.432 892.796 569.757 894.959 568.198C895.732 568.637 896.507 569.079 897.279 569.518C893.957 576.616 891.463 584.259 887.186 590.728C859.03 633.291 818.116 652.341 768.171 652.129C703.037 651.846 651.374 620.895 605.694 577.64C603.95 575.987 602.674 571.856 603.505 569.823C606.839 561.663 611.089 553.88 615.855 544.229C628.342 554.353 639.186 563.291 650.181 572.039Z" fill="url(#paint1_linear_1_15)"/>
<path d="M907.415 349.265C848.732 294.775 779.158 276.725 700.696 296.802C657.451 307.866 618.856 328.478 582.93 354.389C546.126 380.936 513.998 412.295 492.454 452.577C471.166 492.385 452.584 533.635 431.666 573.655C411.085 613.028 386.774 649.963 353.273 679.958C315.313 713.948 270.972 731.173 220.224 724.01C147.814 713.789 98.0557 671.914 69.2836 605.671C44.1165 547.731 46.66 488.799 68.5364 430.342C105.583 331.33 209.648 278.322 311.469 306.524C366.911 321.878 409.927 355.572 446.105 399.039C455.015 409.745 454.374 414.135 442.746 425.439C440.336 423.322 437.774 421.248 435.414 418.973C408.121 392.71 380.071 367.393 346.305 349.471C313.894 332.264 279.795 322.018 242.626 326.701C174.575 335.274 125.007 370.422 94.2327 431.634C58.9571 501.809 68.7855 585.628 123.926 644.013C170.752 693.597 239.849 710.029 300.258 685.008C309.277 681.275 317.53 675.687 326.138 670.955C325.705 670.17 325.276 669.392 324.846 668.608C322.477 669.722 320.052 670.718 317.757 671.96C299.968 681.608 281.003 686.801 260.879 689.413C167.004 701.617 85.3881 624.229 80.0303 530.945C77.244 482.513 91.0355 438.57 121.542 401.33C162.343 351.528 215.019 327.451 279.87 340.925C341.128 353.655 390.98 387.414 433.867 432.048C435.477 433.726 435.909 436.534 437.291 439.744C434.714 439.43 433.976 439.563 433.596 439.258C431.202 437.331 428.836 435.367 426.56 433.303C395.849 405.412 362.369 381.764 323.766 365.88C295.579 354.284 266.536 345.738 235.849 350.112C167.113 359.912 118.702 411.579 101.505 475.256C86.3096 531.518 96.3933 583.402 135.601 627.803C170.008 666.774 214.016 682.819 264.96 674.635C327.638 664.57 372.708 626.259 409.453 577.067C434.67 543.32 449.181 503.652 468.196 466.493C503.54 397.429 556.194 346.625 627.256 315.188C641.436 308.918 655.819 303.115 670.109 297.097C671.56 296.444 678.925 292.172 678.925 292.172L669.331 294.775C669.331 294.775 657.089 298.028 651.118 300.092C613.903 312.947 580.81 333.456 547.798 354.486C516.211 374.61 490.073 399.484 473.311 433.026C458.626 462.414 445.134 492.419 431.744 522.434C407.884 575.931 372.101 618.379 321.182 648.428C242.626 694.796 143.169 660.905 111.47 575.94C110.194 572.512 109.746 568.774 108.644 564.007C117.572 570.968 124.708 577.232 132.547 582.44C140.457 587.696 148.835 592.39 157.406 596.503C238.29 635.346 311.21 627.081 378.564 564.904C408.174 537.573 426.352 502.771 442.248 466.598C468.087 407.79 506.703 359.355 562.227 326.838C642.629 279.751 728.939 271.068 818.761 293.997C830.697 297.044 842.43 300.88 854.254 304.348C807.46 275.043 756.326 261.159 701.674 264.483C601.323 270.588 522.079 316.539 461.31 397.538C456.316 391.981 452.12 387.511 448.141 382.85C428.659 360.031 406.542 340.175 381.481 323.665C343.762 298.819 302.552 284.234 257.103 286.749C174.307 291.332 112.498 330.374 73.4739 403.861C16.9974 510.211 46.6039 636.619 143.938 704.752C171.35 723.938 201.716 736.488 235.74 736.902C256.293 737.157 276.974 736.796 297.409 734.785C365.834 728.054 422.333 697.949 466.051 644.869C507.161 594.965 535.905 538.221 557.838 477.566C566.576 453.395 578.248 430.23 589.437 407.018C610.083 364.212 645.427 338.213 688.635 320.975C764.429 290.743 847.536 307.078 901.457 366.3C956.149 426.37 973.621 496.631 949.223 575.093C918.558 673.713 819.091 727.245 719.671 699.858C665.567 684.955 624.893 650.554 588.534 609.874C586.965 608.121 586.747 605.167 585.897 602.773C586.75 602.237 587.606 601.696 588.462 601.157C593.898 606.281 599.43 611.315 604.757 616.558C638.55 649.879 676.734 677.001 722.884 689.198C780.683 704.478 834.535 694.544 881.504 655.632C934.127 612.038 956.999 530.584 935.612 466.047C923.747 430.255 903.524 400.35 874.493 376.727C843.392 351.423 808.111 337.32 767.119 340.853C731.893 343.892 701.449 358.844 673.842 379.653C633.311 410.206 604.791 451.235 579.714 494.374C552.215 541.679 527.039 590.342 490.655 631.816C468.579 656.983 447.459 683.215 418.727 701.442C408.697 707.803 398.019 713.142 387.639 718.948C388.15 719.954 388.666 720.962 389.18 721.971C427.083 703.164 464.987 684.357 503.811 665.093C503.313 667.344 503.388 668.39 502.899 668.959C501.321 670.827 499.655 672.658 497.812 674.258C456.97 709.745 409.254 731.186 356.096 738.268C323.654 742.59 290.526 741.849 257.697 743.047C244.373 743.533 231.017 743.128 217.671 743.128C217.876 744.33 218.091 745.535 218.297 746.733C361.672 784.506 479.31 746.039 568.603 625.543C570.312 626.772 571.175 627.196 571.782 627.853C575.748 632.143 579.698 636.451 583.584 640.813C623.887 686.048 672.403 717.108 733.039 727.011C792.184 736.671 846.615 724.166 894.371 688.339C941.113 653.272 967.615 604.641 976.08 547.454C987.549 470.063 964.782 402.532 907.415 349.265ZM107.43 509.19C102.716 501.142 104.871 491.218 114.73 482.13C111.931 492.494 109.652 500.934 107.43 509.19ZM419.185 476.081C404.08 509.573 386.733 541.888 360.025 567.765C328.457 598.343 291.055 616.324 246.222 613.13C202.164 609.992 167.586 588.717 142.098 552.915C128.833 534.279 120.1 514.034 121.573 490.246C122.806 470.266 133.895 457.595 150.003 447.891C182.679 428.2 218.484 417.777 255.917 412.472C268.071 410.751 280.405 410.296 292.655 409.263C329.628 406.174 359.231 423.988 388.24 443.01C397.975 449.395 407.159 456.773 415.801 464.581C418.413 466.944 420.477 473.223 419.185 476.081ZM428.758 453.539C425.71 451.599 422.429 449.946 419.646 447.676C386.973 421.009 350.611 400.611 311.649 384.852C283.129 373.318 248.38 370.718 226.612 378.405C260.979 375.892 292.929 384.65 326.129 399.671C246.094 399.817 171.291 409.132 111.965 467.563C117.806 445.37 128.73 426.497 144.293 410.499C184.254 369.42 232.863 357.45 288.007 369.162C340.985 380.416 385.186 407.905 424.465 444.19C426.738 446.291 428.568 448.872 430.611 451.229C429.991 451.998 429.375 452.77 428.758 453.539ZM595.878 383.084C589.938 391.897 582.893 400.172 578.26 409.627C563.426 439.897 548.744 470.288 535.391 501.23C518.222 541.029 501.794 581.177 477.937 617.564C444.962 667.86 400.497 702.563 340.686 715.489C339.546 715.732 338.342 715.682 334.637 715.956C346.343 708.587 356.295 702.915 365.619 696.343C405.005 668.598 435.701 632.731 458.801 590.89C479.114 554.095 496.744 515.818 516.034 478.441C534.542 442.571 559.173 411.389 589.947 385.157C591.311 383.993 592.79 382.959 594.215 381.863L598.272 379.009L595.878 383.084ZM557.383 591.537C529.106 631.891 491.567 663.384 446.363 685.618C447.69 683.984 448.904 682.25 450.345 680.73C480.612 648.91 512.186 618.205 540.675 584.859C556.231 566.65 568.843 545.014 578.78 523.112C600.09 476.156 628.772 435.41 667.089 400.823C687.284 382.592 706.67 364.071 732.921 354.592C782.66 336.635 828.016 345.987 867.844 378.763C923.153 424.271 942.719 484.172 929.292 553.743C914.928 628.18 842.96 681.608 766.954 678.508C704.357 675.955 654.004 648.166 609.591 606.63C605.323 602.648 601.021 598.651 597.182 594.268C595.495 592.34 594.931 589.426 593.857 586.964C594.934 586.223 596.005 585.479 597.079 584.732C602.845 590.015 608.536 595.385 614.386 600.572C646.287 628.874 681.179 652.011 723.497 661.472C773.171 672.571 821.124 668.567 861.854 635.816C909.464 597.527 927.057 546.24 913.545 486.66C901.317 432.745 867.529 394.799 816.762 373.383C781.318 358.43 745.962 362.885 712.922 381.695C665.062 408.942 632.299 449.597 608.623 498.973C593.387 530.755 577.522 562.802 557.383 591.537ZM743.378 414.502C793.089 417.117 835.002 437.064 867.763 474.154C886.015 494.82 887.435 520.223 877.407 545.334C860.344 588.063 814.863 615.095 766.624 612.816C729.092 611.041 696.088 597.378 666.535 574.95C652.118 564.01 638.569 551.937 624.485 540.546C620.565 537.38 619.448 534.354 621.668 529.482C633.635 503.231 645.35 476.863 657.111 450.516C661.616 440.42 669.275 434.081 679.368 429.695C699.84 420.797 720.611 413.655 743.378 414.502ZM682.067 412.423C690.298 405.972 698.047 398.771 706.832 393.202C740.554 371.826 776.188 371.92 811.968 386.742C851.618 403.167 881.728 430.532 897.789 470.839C903.437 485.016 904.648 500.959 906.715 516.139C856.957 426.911 783.414 391.832 682.067 412.423ZM650.181 572.039C672.634 589.897 696.026 606.2 723.665 615.247C763.259 628.211 801.564 623.818 837.923 604.768C855.509 595.553 871.673 583.614 888.453 572.871C890.701 571.432 892.796 569.757 894.959 568.198C895.732 568.637 896.507 569.079 897.279 569.518C893.957 576.616 891.463 584.259 887.186 590.728C859.03 633.291 818.116 652.341 768.171 652.129C703.037 651.846 651.374 620.895 605.694 577.64C603.95 575.987 602.674 571.856 603.505 569.823C606.839 561.663 611.089 553.88 615.855 544.229C628.342 554.353 639.186 563.291 650.181 572.039Z" stroke="url(#paint2_linear_1_15)" stroke-width="2" stroke-linejoin="round" mask="url(#path-2-outside-1_1_15)"/>
<defs>
<linearGradient id="paint0_linear_1_15" x1="579.36" y1="439.199" x2="773.139" y2="295.251" gradientUnits="userSpaceOnUse">
<stop stop-color="#24BFFE"/>
<stop offset="1" stop-color="#61DDE6"/>
</linearGradient>
<linearGradient id="paint1_linear_1_15" x1="45" y1="512.341" x2="978.96" y2="512.341" gradientUnits="userSpaceOnUse">
<stop stop-color="#5433FF"/>
<stop offset="0.5" stop-color="#20BDFF"/>
<stop offset="1" stop-color="#A5FECB"/>
</linearGradient>
<linearGradient id="paint2_linear_1_15" x1="45" y1="512.341" x2="978.96" y2="512.341" gradientUnits="userSpaceOnUse">
<stop stop-color="#5433FF"/>
<stop offset="0.5" stop-color="#20BDFF"/>
<stop offset="1" stop-color="#A5FECB"/>
</linearGradient>
</defs>
</svg>
